<svg xmlns="http://www.w3.org/2000/svg" width="217" height="97" fill="none"><path fill="#121212" d="M217 97H0V0h21.796v14.575h14.482v14.57h14.477V43.72h14.482v14.575h14.481v14.57h7.24V0h43.44v72.866h7.239V58.295h14.482V43.72H166.6V29.146h14.478V14.575h14.481V0H217v97Z"/><path fill="#F1FF48" d="M217 71.5c.022 14.972 0 25.5 0 25.5H0V43c14.955.026 27.219 12.423 27.243 27.393-.022-14.972 12.081-27.089 27.034-27.065 14.955.027 27.097 12.183 27.121 27.153-.022-14.972 12.081-27.09 27.034-27.065 14.955.026 27.097 12.182 27.121 27.152-.022-14.972 12.081-27.089 27.034-27.064 14.955.026 27.097 12.182 27.121 27.152C189.687 55.684 202.047 42.976 217 43c0 0-.024 13.53 0 28.5Z"/></svg>